<?xml version="1.0" encoding="UTF-8"?>
<svg xmlns="http://www.w3.org/2000/svg" xmlns:xlink="http://www.w3.org/1999/xlink" width="375pt" height="374.999991pt" viewBox="0 0 375 374.999991" version="1.2">
<defs>
<clipPath id="clip1">
  <path d="M 37.5 97 L 337.5 97 L 337.5 301 L 37.5 301 Z M 37.5 97 "/>
</clipPath>
</defs>
<g id="surface1">
<g clip-path="url(#clip1)" clip-rule="nonzero">
<path style=" stroke:none;fill-rule:nonzero;fill:rgb(24.708557%,72.549438%,31.369019%);fill-opacity:1;" d="M 331.378906 103.582031 C 331.363281 103.566406 331.363281 103.554688 331.351562 103.539062 C 331.214844 103.390625 331.042969 103.308594 330.886719 103.183594 C 327.265625 99.832031 322.472656 97.738281 317.140625 97.738281 L 57.859375 97.738281 C 52.546875 97.738281 47.746094 99.835938 44.113281 103.183594 C 43.964844 103.308594 43.785156 103.390625 43.65625 103.539062 C 43.644531 103.554688 43.644531 103.566406 43.628906 103.582031 C 39.867188 107.289062 37.5 112.441406 37.5 118.136719 L 37.5 279.875 C 37.5 285.570312 39.859375 290.722656 43.628906 294.429688 C 43.644531 294.445312 43.644531 294.457031 43.65625 294.472656 C 43.738281 294.574219 43.855469 294.609375 43.941406 294.683594 C 47.589844 298.125 52.464844 300.269531 57.859375 300.269531 L 317.132812 300.269531 C 322.527344 300.269531 327.402344 298.125 331.050781 294.683594 C 331.132812 294.601562 331.246094 294.566406 331.328125 294.472656 C 331.34375 294.457031 331.34375 294.445312 331.355469 294.429688 C 335.140625 290.734375 337.492188 285.578125 337.492188 279.875 L 337.492188 118.136719 C 337.5 112.441406 335.140625 107.289062 331.378906 103.582031 Z M 226.507812 199.003906 L 328.40625 110.609375 C 329.84375 112.761719 330.683594 115.351562 330.683594 118.136719 L 330.683594 279.875 C 330.683594 282.660156 329.84375 285.25 328.40625 287.402344 Z M 317.140625 104.5625 C 319.335938 104.5625 321.386719 105.136719 323.214844 106.074219 L 198.730469 214.066406 C 192.335938 219.621094 182.6875 219.621094 176.285156 214.066406 L 51.796875 106.074219 C 53.632812 105.136719 55.671875 104.5625 57.871094 104.5625 Z M 46.601562 287.394531 C 45.171875 285.25 44.316406 282.660156 44.316406 279.875 L 44.316406 118.136719 C 44.316406 115.351562 45.164062 112.761719 46.601562 110.609375 L 148.492188 199.003906 Z M 57.859375 293.445312 C 55.664062 293.445312 53.617188 292.871094 51.785156 291.929688 L 153.695312 203.519531 L 171.804688 219.230469 C 176.269531 223.105469 181.886719 225.058594 187.492188 225.058594 C 193.089844 225.058594 198.710938 223.125 203.183594 219.230469 L 221.289062 203.519531 L 323.1875 291.929688 C 321.363281 292.871094 319.328125 293.445312 317.113281 293.445312 Z M 57.859375 293.445312 "/>
</g>
</g>
</svg>
