<svg width="217" height="39" viewBox="0 0 217 39" fill="none" xmlns="http://www.w3.org/2000/svg">
<path d="M21.6187 30H17.0659V18.311H5.30469V30H0.733887V3.69531H5.30469V14.6436H17.0659V3.69531H21.6187V30ZM35.2227 30.3613C32.4404 30.3613 30.1821 29.4881 28.4478 27.7417C26.7254 25.9832 25.8643 23.6466 25.8643 20.7319V20.1899C25.8643 18.2388 26.2376 16.4984 26.9844 14.9688C27.7432 13.4271 28.8031 12.2287 30.1641 11.3735C31.5251 10.5184 33.0426 10.0908 34.7168 10.0908C37.3786 10.0908 39.4321 10.9399 40.8774 12.6382C42.3348 14.3364 43.0635 16.7393 43.0635 19.8467V21.6172H30.2905C30.423 23.2311 30.959 24.5078 31.8984 25.4473C32.8499 26.3867 34.0423 26.8564 35.4756 26.8564C37.487 26.8564 39.125 26.0435 40.3896 24.4175L42.7563 26.6758C41.9735 27.8441 40.9256 28.7534 39.6128 29.4038C38.312 30.0422 36.8486 30.3613 35.2227 30.3613ZM34.6987 13.6138C33.4943 13.6138 32.5187 14.0353 31.772 14.8784C31.0373 15.7215 30.5675 16.8958 30.3628 18.4014H38.7275V18.0762C38.6312 16.6068 38.2397 15.4987 37.5532 14.752C36.8667 13.9932 35.9152 13.6138 34.6987 13.6138ZM51.1572 30H46.7671V2.25H51.1572V30ZM60.624 30H56.2339V2.25H60.624V30ZM64.5986 20.0454C64.5986 18.1304 64.978 16.408 65.7368 14.8784C66.4956 13.3368 67.5615 12.1564 68.9346 11.3374C70.3076 10.5063 71.8854 10.0908 73.668 10.0908C76.3057 10.0908 78.4435 10.9399 80.0815 12.6382C81.7316 14.3364 82.6229 16.5887 82.7554 19.395L82.7734 20.4248C82.7734 22.3519 82.4001 24.0742 81.6533 25.5918C80.9186 27.1094 79.8587 28.2837 78.4736 29.1147C77.1006 29.9458 75.5107 30.3613 73.7041 30.3613C70.946 30.3613 68.7358 29.446 67.0737 27.6152C65.4237 25.7725 64.5986 23.3215 64.5986 20.2622V20.0454ZM68.9888 20.4248C68.9888 22.4362 69.4043 24.014 70.2354 25.1582C71.0664 26.2904 72.2227 26.8564 73.7041 26.8564C75.1855 26.8564 76.3358 26.2783 77.1548 25.1221C77.9858 23.9658 78.4014 22.2736 78.4014 20.0454C78.4014 18.0701 77.9738 16.5044 77.1187 15.3481C76.2756 14.1919 75.1253 13.6138 73.668 13.6138C72.2347 13.6138 71.0965 14.1859 70.2534 15.3301C69.4103 16.4622 68.9888 18.1605 68.9888 20.4248ZM87.1094 35.9258L84.7427 34.5166C85.4412 33.4206 85.917 32.4631 86.1699 31.644C86.4349 30.8371 86.5734 30.012 86.5854 29.1689V25.7544H90.542L90.5239 28.916C90.5119 30.1927 90.1867 31.4694 89.5483 32.7461C88.922 34.0348 88.109 35.0947 87.1094 35.9258ZM109.331 5.70068V10.4521H112.782V13.7041H109.331V24.6162C109.331 25.363 109.476 25.9049 109.765 26.2422C110.066 26.5674 110.596 26.73 111.354 26.73C111.86 26.73 112.372 26.6698 112.89 26.5493V29.9458C111.89 30.2228 110.927 30.3613 110 30.3613C106.627 30.3613 104.941 28.5005 104.941 24.7788V13.7041H101.725V10.4521H104.941V5.70068H109.331ZM120.478 12.584C121.911 10.9219 123.724 10.0908 125.916 10.0908C130.083 10.0908 132.197 12.4696 132.257 17.2271V30H127.867V17.3896C127.867 16.0407 127.572 15.0892 126.982 14.5352C126.404 13.9691 125.549 13.686 124.417 13.686C122.658 13.686 121.345 14.4689 120.478 16.0347V30H116.088V2.25H120.478V12.584ZM145.319 30.3613C142.537 30.3613 140.279 29.4881 138.544 27.7417C136.822 25.9832 135.961 23.6466 135.961 20.7319V20.1899C135.961 18.2388 136.334 16.4984 137.081 14.9688C137.84 13.4271 138.9 12.2287 140.261 11.3735C141.622 10.5184 143.139 10.0908 144.813 10.0908C147.475 10.0908 149.529 10.9399 150.974 12.6382C152.431 14.3364 153.16 16.7393 153.16 19.8467V21.6172H140.387C140.52 23.2311 141.056 24.5078 141.995 25.4473C142.947 26.3867 144.139 26.8564 145.572 26.8564C147.584 26.8564 149.222 26.0435 150.486 24.4175L152.853 26.6758C152.07 27.8441 151.022 28.7534 149.709 29.4038C148.409 30.0422 146.945 30.3613 145.319 30.3613ZM144.795 13.6138C143.591 13.6138 142.615 14.0353 141.869 14.8784C141.134 15.7215 140.664 16.8958 140.459 18.4014H148.824V18.0762C148.728 16.6068 148.336 15.4987 147.65 14.752C146.963 13.9932 146.012 13.6138 144.795 13.6138ZM166.818 14.4629C166.24 14.3665 165.644 14.3184 165.03 14.3184C163.018 14.3184 161.663 15.0892 160.965 16.6309V30H156.575V10.4521H160.766L160.875 12.6382C161.934 10.9399 163.404 10.0908 165.283 10.0908C165.909 10.0908 166.427 10.1751 166.836 10.3438L166.818 14.4629ZM177.839 30.3613C175.057 30.3613 172.798 29.4881 171.064 27.7417C169.342 25.9832 168.48 23.6466 168.48 20.7319V20.1899C168.48 18.2388 168.854 16.4984 169.601 14.9688C170.359 13.4271 171.419 12.2287 172.78 11.3735C174.141 10.5184 175.659 10.0908 177.333 10.0908C179.995 10.0908 182.048 10.9399 183.494 12.6382C184.951 14.3364 185.68 16.7393 185.68 19.8467V21.6172H172.907C173.039 23.2311 173.575 24.5078 174.515 25.4473C175.466 26.3867 176.659 26.8564 178.092 26.8564C180.103 26.8564 181.741 26.0435 183.006 24.4175L185.373 26.6758C184.59 27.8441 183.542 28.7534 182.229 29.4038C180.928 30.0422 179.465 30.3613 177.839 30.3613ZM177.315 13.6138C176.111 13.6138 175.135 14.0353 174.388 14.8784C173.653 15.7215 173.184 16.8958 172.979 18.4014H181.344V18.0762C181.247 16.6068 180.856 15.4987 180.169 14.752C179.483 13.9932 178.531 13.6138 177.315 13.6138ZM200.964 25.375C201.783 25.375 202.415 25.6099 202.861 26.0796C203.306 26.5373 203.529 27.1154 203.529 27.814C203.529 28.5005 203.306 29.0726 202.861 29.5303C202.415 29.9759 201.783 30.1987 200.964 30.1987C200.181 30.1987 199.561 29.9759 199.103 29.5303C198.645 29.0846 198.417 28.5125 198.417 27.814C198.417 27.1154 198.639 26.5373 199.085 26.0796C199.531 25.6099 200.157 25.375 200.964 25.375ZM200.964 10.0366C201.783 10.0366 202.415 10.2715 202.861 10.7412C203.306 11.1989 203.529 11.777 203.529 12.4756C203.529 13.1621 203.306 13.7342 202.861 14.1919C202.415 14.6375 201.783 14.8604 200.964 14.8604C200.181 14.8604 199.561 14.6375 199.103 14.1919C198.645 13.7463 198.417 13.1742 198.417 12.4756C198.417 11.777 198.639 11.1989 199.085 10.7412C199.531 10.2715 200.157 10.0366 200.964 10.0366ZM216.609 19.5938C216.609 22.2676 216.242 24.8511 215.507 27.3442C214.773 29.8254 213.659 32.0837 212.165 34.1191C210.672 36.1667 209.112 37.5819 207.486 38.3647L206.619 35.9258C208.425 34.5286 209.853 32.3968 210.9 29.5303C211.96 26.6517 212.49 23.3696 212.49 19.6841V19.2686C212.49 15.9202 212.033 12.873 211.117 10.127C210.202 7.36882 208.889 5.15869 207.179 3.49658L206.619 2.99072L207.486 0.533691C209.028 1.28044 210.521 2.60531 211.966 4.5083C213.412 6.4113 214.52 8.54313 215.291 10.9038C216.061 13.2524 216.495 15.6794 216.591 18.1846L216.609 19.5938Z" fill="#8C9299"/>
</svg>
