<?xml version="1.0" encoding="UTF-8"?>
<svg xmlns="http://www.w3.org/2000/svg" xmlns:xlink="http://www.w3.org/1999/xlink" width="375pt" height="374.999991pt" viewBox="0 0 375 374.999991" version="1.2">
<defs>
<clipPath id="clip1">
  <path d="M 42 135 L 113 135 L 113 330.136719 L 42 330.136719 Z M 42 135 "/>
</clipPath>
<clipPath id="clip2">
  <path d="M 38 45.136719 L 117 45.136719 L 117 118 L 38 118 Z M 38 45.136719 "/>
</clipPath>
</defs>
<g id="surface1">
<g clip-path="url(#clip1)" clip-rule="nonzero">
<path fill="#388bfd" style=" stroke:none;fill-rule:nonzero;fill:rgb(21.958923%,54.508972%,99.21875%);fill-opacity:1;" d="M 108.714844 135.476562 L 46.386719 135.476562 C 44.394531 135.476562 42.398438 136.976562 42.398438 139.472656 L 42.398438 326.144531 C 42.398438 328.140625 43.894531 330.136719 46.386719 330.136719 L 108.21875 330.136719 C 110.210938 330.136719 112.207031 328.640625 112.207031 326.144531 L 112.207031 138.972656 C 112.207031 136.976562 110.710938 135.476562 108.714844 135.476562 Z M 104.726562 322.148438 L 50.375 322.148438 L 50.375 142.964844 L 104.726562 142.964844 Z M 104.726562 322.148438 "/>
</g>
<g clip-path="url(#clip2)" clip-rule="nonzero">
<path fill="#388bfd" style=" stroke:none;fill-rule:nonzero;fill:rgb(21.958923%,54.508972%,99.21875%);fill-opacity:1;" d="M 77.800781 45.136719 C 55.363281 45.136719 38.90625 60.109375 38.90625 81.074219 C 38.90625 102.035156 54.863281 117.011719 76.804688 117.011719 L 77.800781 117.011719 C 100.238281 117.011719 116.695312 102.035156 116.695312 81.074219 C 115.695312 60.109375 100.238281 45.136719 77.800781 45.136719 Z M 77.800781 110.023438 C 59.351562 110.023438 46.886719 98.042969 46.886719 81.574219 C 46.886719 64.601562 59.351562 52.625 77.800781 52.625 C 95.75 52.625 108.21875 64.101562 108.714844 81.074219 C 108.714844 98.042969 96.25 110.023438 77.800781 110.023438 Z M 77.800781 110.023438 "/>
</g>
<path fill="#388bfd" style=" stroke:none;fill-rule:nonzero;fill:rgb(21.958923%,54.508972%,99.21875%);fill-opacity:1;" d="M 260.800781 130.984375 C 233.871094 130.984375 218.414062 142.464844 208.441406 153.945312 L 208.441406 138.972656 C 208.441406 136.976562 206.945312 134.980469 204.453125 134.980469 L 142.625 134.980469 C 141.625 134.980469 140.628906 135.476562 140.128906 135.976562 C 139.632812 136.476562 139.132812 137.472656 139.132812 138.972656 C 140.128906 155.941406 139.132812 323.648438 139.132812 325.644531 C 139.132812 326.640625 139.632812 327.640625 140.128906 328.140625 C 140.628906 328.640625 141.625 329.136719 142.625 329.136719 L 204.453125 329.136719 C 206.449219 329.136719 208.441406 327.640625 208.441406 325.144531 L 208.441406 221.328125 C 208.441406 214.839844 208.941406 210.347656 210.4375 207.351562 C 212.929688 201.363281 220.410156 186.886719 238.859375 186.886719 C 257.308594 186.886719 266.285156 199.863281 266.285156 225.320312 L 266.285156 325.144531 C 266.285156 327.140625 267.78125 329.136719 270.273438 329.136719 L 332.101562 329.136719 C 334.097656 329.136719 336.09375 327.640625 336.09375 325.144531 L 336.09375 218.832031 C 336.09375 163.929688 307.671875 130.984375 260.800781 130.984375 Z M 328.113281 322.148438 L 273.761719 322.148438 L 273.761719 225.820312 C 273.761719 196.371094 261.296875 179.898438 238.859375 179.898438 C 222.902344 179.898438 209.9375 189.382812 203.457031 204.855469 C 201.960938 208.847656 200.964844 213.839844 200.964844 221.328125 L 200.964844 322.148438 L 146.613281 322.148438 C 146.613281 298.191406 147.109375 170.914062 146.613281 142.964844 L 200.964844 142.964844 L 200.964844 164.425781 C 200.464844 165.425781 200.464844 166.921875 201.460938 167.921875 C 201.960938 168.917969 203.457031 169.917969 204.953125 169.917969 C 206.945312 169.917969 208.441406 168.421875 208.441406 166.921875 C 217.417969 153.445312 231.378906 138.472656 260.800781 138.472656 C 303.679688 138.472656 328.613281 167.921875 328.613281 218.832031 L 328.613281 322.148438 Z M 328.113281 322.148438 "/>
</g>
</svg>
