<svg width="24" height="25" viewBox="0 0 24 25" fill="none" xmlns="http://www.w3.org/2000/svg">
<path d="M22.8014 2.69506L23.3004 2.66348C23.2875 2.4605 23.153 2.28553 22.9601 2.22094C22.7673 2.15635 22.5545 2.21502 22.422 2.36932L22.8014 2.69506ZM21.7329 7.5644C21.7329 7.28826 21.509 7.0644 21.2329 7.0644C20.9568 7.0644 20.7329 7.28826 20.7329 7.5644H21.7329ZM11.8222 7.69966L11.3222 7.69966L11.3222 7.69966L11.8222 7.69966ZM11.8222 9.27768L12.3222 9.27768L12.3222 9.27768L11.8222 9.27768ZM0.842957 20.7973V20.2973C0.624689 20.2973 0.431645 20.4389 0.366061 20.647C0.300478 20.8552 0.377513 21.0819 0.556368 21.207L0.842957 20.7973ZM2.41141 2.69506L2.88224 2.52678C2.81426 2.33657 2.6385 2.20595 2.43676 2.1957C2.23503 2.18546 2.04694 2.29761 1.96005 2.47996L2.41141 2.69506ZM8.68524 17.506L9.04718 17.8509C9.16437 17.728 9.21112 17.5539 9.17132 17.3888C9.13153 17.2237 9.01063 17.0901 8.85031 17.034L8.68524 17.506ZM20.0329 4.29691L19.6544 4.62361L19.8363 4.83436L20.1113 4.79073L20.0329 4.29691ZM22.3023 2.72664C22.3845 4.02421 22.3123 4.85652 22.0923 5.50629C21.8761 6.14468 21.5012 6.6542 20.8787 7.27915L21.5871 7.9849C22.2607 7.30878 22.7536 6.67117 23.0395 5.82702C23.3215 4.99424 23.3855 4.0086 23.3004 2.66348L22.3023 2.72664ZM21.7329 8.7634V7.5644H20.7329V8.7634H21.7329ZM11.3222 7.69966L11.3222 9.27768L12.3222 9.27768L12.3222 7.69966L11.3222 7.69966ZM11.3222 9.27768L11.3222 10.1005L12.3222 10.1005L12.3222 9.27768L11.3222 9.27768ZM16.592 2.19506C13.6592 2.19506 11.3222 4.68246 11.3222 7.69966H12.3222C12.3222 5.18893 14.2562 3.19506 16.592 3.19506V2.19506ZM20.7329 8.7634C20.7329 16.0652 15.0972 21.9429 8.19509 21.9429V22.9429C15.6942 22.9429 21.7329 16.5716 21.7329 8.7634H20.7329ZM1.94058 2.86334C2.76313 5.16477 5.88128 9.77768 11.8222 9.77768V8.77768C6.47014 8.77768 3.62815 4.61376 2.88224 2.52678L1.94058 2.86334ZM1.96005 2.47996C0.346688 5.8655 0.117558 9.10261 1.26412 11.8367C2.4106 14.5706 4.89409 16.7097 8.52018 17.9779L8.85031 17.034C5.41834 15.8337 3.19646 13.8587 2.18631 11.4499C1.17624 9.04135 1.33923 6.10725 2.86278 2.91016L1.96005 2.47996ZM8.3233 17.161C7.33852 18.1943 4.4285 20.2973 0.842957 20.2973V21.2973C4.78601 21.2973 7.94072 19.0119 9.04718 17.8509L8.3233 17.161ZM20.4114 3.97021C19.4744 2.88453 18.1125 2.19506 16.592 2.19506V3.19506C17.8008 3.19506 18.8932 3.74163 19.6544 4.62361L20.4114 3.97021ZM20.1113 4.79073C21.244 4.61102 22.3511 3.98683 23.1807 3.02081L22.422 2.36932C21.7364 3.16767 20.8377 3.66297 19.9546 3.80309L20.1113 4.79073ZM0.556368 21.207C3.05492 22.9547 5.67643 22.9429 8.19509 22.9429V21.9429C5.6448 21.9429 3.33636 21.9312 1.12954 20.3876L0.556368 21.207Z" fill="#8C9299"/>
</svg>
