<?xml version="1.0" encoding="UTF-8"?>
<svg xmlns="http://www.w3.org/2000/svg" xmlns:xlink="http://www.w3.org/1999/xlink" width="375pt" height="374.999991pt" viewBox="0 0 375 374.999991" version="1.2">
<defs>
<clipPath id="clip1">
  <path d="M 44 67.226562 L 336 67.226562 L 336 307.976562 L 44 307.976562 Z M 44 67.226562 "/>
</clipPath>
</defs>
<g id="surface1">
<g clip-path="url(#clip1)" clip-rule="nonzero">
<path style=" stroke:none;fill-rule:nonzero;fill:rgb(53.729248%,34.118652%,89.7995%);fill-opacity:1;" d="M 335.203125 96.15625 C 334.714844 94.683594 332.753906 93.703125 331.285156 94.195312 L 313.160156 97.628906 C 319.527344 91.253906 326.875 82.425781 328.34375 73.601562 C 328.34375 72.128906 327.855469 71.148438 326.875 70.167969 C 325.894531 69.1875 324.425781 69.1875 322.957031 69.679688 L 290.132812 82.917969 C 284.746094 78.503906 267.109375 67.226562 240.164062 67.226562 C 233.304688 67.226562 225.957031 68.207031 218.609375 69.679688 C 218.117188 69.679688 176.476562 78.996094 181.375 138.816406 C 179.90625 138.816406 177.457031 139.304688 174.519531 139.304688 C 153.941406 139.304688 112.789062 131.460938 67.71875 78.503906 C 66.742188 77.035156 65.761719 76.542969 64.78125 76.542969 C 63.3125 76.542969 62.332031 77.523438 61.839844 78.503906 C 61.839844 78.996094 39.304688 123.613281 72.621094 154.996094 C 68.699219 154.503906 63.800781 153.035156 59.390625 150.09375 C 58.414062 149.113281 56.941406 149.113281 55.960938 149.601562 C 54.984375 150.09375 54.003906 151.074219 54.003906 152.542969 C 54.003906 153.035156 50.574219 187.847656 86.335938 207.949219 L 76.539062 207.949219 C 75.558594 207.949219 74.578125 208.441406 73.597656 209.421875 C 73.109375 210.402344 72.621094 211.382812 73.109375 212.363281 C 73.597656 213.835938 80.949219 245.214844 124.546875 255.023438 C 115.730469 261.886719 93.195312 275.125 48.125 273.65625 C 46.65625 273.65625 45.183594 274.636719 44.695312 276.105469 C 44.207031 277.578125 44.695312 279.046875 45.675781 280.027344 C 47.144531 281.007812 82.417969 307.976562 137.285156 307.976562 L 141.695312 307.976562 C 159.332031 307.976562 248.980469 302.582031 294.542969 194.710938 C 306.789062 165.78125 305.808594 139.304688 304.832031 126.066406 L 334.714844 99.097656 C 335.695312 99.097656 335.695312 97.628906 335.203125 96.15625 Z M 297.972656 123.125 C 296.992188 124.105469 296.5 125.085938 296.992188 126.066406 C 297.480469 137.34375 299.441406 164.3125 287.195312 193.242188 C 243.59375 296.210938 157.859375 301.601562 141.203125 301.601562 C 140.226562 301.601562 139.734375 301.601562 139.246094 301.601562 L 136.796875 301.601562 C 101.523438 301.601562 74.089844 289.34375 59.882812 281.5 C 115.730469 279.539062 133.855469 256.492188 134.347656 255.023438 C 134.835938 253.550781 135.324219 252.570312 134.835938 251.589844 C 134.347656 250.609375 133.367188 249.628906 131.898438 249.136719 C 97.113281 243.746094 84.867188 224.132812 80.949219 215.304688 L 102.992188 215.304688 C 104.953125 215.304688 106.421875 213.835938 106.421875 212.363281 C 106.910156 210.402344 105.441406 208.929688 103.972656 208.441406 C 67.230469 196.671875 60.863281 171.175781 60.371094 159.410156 C 66.742188 162.351562 72.621094 162.839844 77.519531 162.839844 C 80.949219 162.839844 82.90625 162.351562 83.398438 162.351562 C 84.867188 161.859375 85.847656 160.878906 86.335938 159.410156 C 86.828125 157.9375 85.847656 156.464844 84.867188 155.484375 C 52.535156 132.929688 60.863281 99.589844 65.761719 86.839844 C 111.320312 137.835938 153.453125 145.679688 174.519531 145.679688 C 181.867188 145.679688 185.785156 144.699219 186.273438 144.699219 C 188.234375 144.207031 189.214844 142.738281 189.214844 140.777344 C 183.335938 84.878906 218.609375 76.542969 220.078125 76.542969 C 226.9375 75.074219 233.796875 74.09375 240.164062 74.09375 C 269.558594 74.09375 287.195312 89.292969 287.195312 89.292969 C 288.171875 90.273438 289.644531 90.273438 291.113281 89.78125 L 318.058594 78.996094 C 313.160156 87.820312 302.871094 96.648438 298.460938 100.078125 C 296.992188 101.058594 296.5 103.019531 297.480469 104.492188 C 298.460938 105.964844 299.929688 106.945312 301.402344 106.453125 L 320.015625 103.019531 Z M 297.972656 123.125 "/>
</g>
</g>
</svg>
